<svg width="32" height="32" fill="none" xmlns="http://www.w3.org/2000/svg"><defs><clipPath id="a"><path transform="translate(4 4)" fill="#fff" fill-opacity="0" d="M0 0h24v24H0z"/></clipPath></defs><circle cx="16" cy="16" r="16" fill="#FFF"/><path d="M4 4h24v24H4z"/><g clip-path="url(#a)"><path d="M14.5 21c-.14 0-.27-.03-.39-.08a.988.988 0 01-.54-.54.995.995 0 01-.08-.38c0-.14.03-.27.08-.39s.12-.23.22-.32L17.1 16l-3.18-3.32a.976.976 0 01-.3-.7c0-.26.11-.52.3-.7.09-.1.2-.17.32-.22.12-.05.25-.08.39-.08.13 0 .26.03.38.08s.23.12.33.22l3.86 4c.18.18.28.43.28.7 0 .26-.1.51-.28.69l-4 4c-.09.1-.2.18-.32.23-.12.06-.25.09-.38.1z" fill="#3671E9"/></g></svg>