<svg width="80" height="80" fill="none" xmlns="http://www.w3.org/2000/svg"><defs><clipPath id="a"><path transform="translate(20 20)" fill="#fff" fill-opacity="0" d="M0 0h40v40H0z"/></clipPath></defs><circle cx="40" cy="40" r="40" fill="#FFF" opacity=".1"/><path d="M20 20h40v40H20z"/><g clip-path="url(#a)"><path d="M52.37 27.63a17.419 17.419 0 00-5.68-3.83c-2.13-.89-4.41-1.35-6.71-1.36-2.31 0-4.59.45-6.72 1.33-2.13.88-4.07 2.17-5.7 3.8a17.524 17.524 0 00-3.8 5.7c-.88 2.13-1.33 4.41-1.33 6.72.01 2.3.47 4.58 1.36 6.71.89 2.13 2.19 4.06 3.83 5.68 1.62 1.64 3.55 2.94 5.68 3.83 2.13.89 4.41 1.35 6.71 1.36 2.31 0 4.59-.45 6.72-1.33 2.13-.88 4.07-2.17 5.7-3.8s2.92-3.57 3.8-5.7c.88-2.13 1.33-4.41 1.33-6.72-.01-2.3-.47-4.58-1.36-6.71-.89-2.13-2.19-4.06-3.83-5.68zM25 40.01c-.01-1.33.17-2.65.52-3.93.57 1.23 1.4 2.3 1.97 3.56.73 1.63 2.7 1.18 3.57 2.61.77 1.26-.06 2.86.52 4.19.42.96 1.41 1.17 2.09 1.87.69.71.68 1.68.79 2.61.12 1.09.31 2.16.58 3.22v.03C29.2 52.12 25 46.54 25 40.01zm15 15c-.84 0-1.68-.07-2.5-.21 0-.22.01-.41.03-.55.19-1.24.81-2.46 1.65-3.39.83-.91 1.96-1.53 2.66-2.58.69-1.01.9-2.38.61-3.56-.41-1.76-2.8-2.34-4.08-3.29-.74-.55-1.4-1.4-2.36-1.46-.45-.04-.83.06-1.27-.05-.4-.11-.72-.33-1.16-.27-.81.1-1.32.97-2.18.85-.83-.11-1.68-1.07-1.86-1.86-.25-1.01.55-1.34 1.41-1.42.36-.04.76-.08 1.1.05.45.17.66.61 1.07.83.76.42.91-.25.8-.92-.18-1.01-.38-1.43.52-2.12.63-.48 1.16-.83 1.06-1.69-.06-.51-.34-.74-.08-1.24.2-.38.74-.73 1.09-.96.9-.59 3.88-.54 2.66-2.2-.36-.48-1.01-1.35-1.64-1.47-.78-.15-1.13.73-1.67 1.11-.56.4-1.66.85-2.22.23-.76-.82.5-1.09.78-1.67.13-.27 0-.65-.22-1 .28-.12.57-.23.86-.33.18.14.4.22.63.24.52.03 1.01-.25 1.47.1.5.39.87.89 1.54 1.01.65.12 1.34-.26 1.5-.93.1-.4 0-.83-.09-1.25 2.92.02 5.77.89 8.2 2.52-.16-.06-.34-.05-.57.05-.48.22-1.15.79-1.21 1.34-.06.63.87.72 1.31.72.67 0 1.34-.3 1.13-1.06-.1-.34-.22-.68-.43-.89.49.34.96.71 1.41 1.1-.01.01-.01.02-.02.02-.45.47-.97.84-1.28 1.42-.22.4-.46.59-.9.69-.25.06-.52.08-.73.24-.56.45-.24 1.52.3 1.84.67.4 1.68.21 2.19-.37.4-.45.63-1.24 1.35-1.23.32-.01.62.12.85.34.29.31.24.6.3.98.11.68.71.31 1.08-.03.27.47.51.96.72 1.46-.4.58-.72 1.22-1.69.54-.58-.4-.94-.99-1.67-1.18-.63-.15-1.29.01-1.92.12-.71.12-1.56.18-2.1.72-.52.52-.8 1.22-1.36 1.74-1.08 1.02-1.53 2.13-.84 3.56.68 1.38 2.08 2.13 3.6 2.04 1.49-.1 3.04-.97 2.99 1.2-.01.76.15 1.29.38 2.01.22.65.21 1.29.26 1.97.04.79.17 1.58.37 2.34-1.4 1.81-3.2 3.27-5.25 4.27-2.05 1-4.3 1.53-6.58 1.53z" fill="#3671E9"/></g></svg>