<svg width="80" height="80" fill="none" xmlns="http://www.w3.org/2000/svg"><defs><clipPath id="a"><path transform="translate(24 24)" fill="#fff" fill-opacity="0" d="M0 0h32v32H0z"/></clipPath></defs><circle cx="40" cy="40" r="40" fill="#FFF" fill-opacity=".1"/><path d="M24 24h32v32H24z"/><g clip-path="url(#a)" fill="#3671E9"><path d="M54 55H27c-.54 0-1.04-.22-1.42-.59-.37-.38-.58-.88-.58-1.41V26a.99.99 0 011-1c.26 0 .51.1.7.29a1 1 0 01.3.71v27h27c.26 0 .51.1.7.29a1 1 0 01.3.71c0 .26-.11.51-.3.7-.19.19-.44.3-.7.3z"/><path d="M33.75 51h-2.5c-.6 0-1.17-.24-1.6-.66-.42-.43-.65-1-.65-1.59v-9.5c0-.6.23-1.17.65-1.6.43-.42 1-.65 1.6-.65h2.5c.59 0 1.16.23 1.59.65.42.43.66 1 .66 1.6v9.5c0 .59-.24 1.16-.66 1.59-.43.42-1 .66-1.59.66zm9 0h-2.5c-.6 0-1.17-.24-1.6-.66-.42-.43-.65-1-.65-1.59v-12.5c0-.6.23-1.17.65-1.6.43-.42 1-.65 1.6-.65h2.5c.59 0 1.16.23 1.59.65.42.43.66 1 .66 1.6v12.5c0 .59-.24 1.16-.66 1.59-.43.42-1 .66-1.59.66zm8.97 0h-2.5c-.59 0-1.17-.24-1.59-.66-.42-.43-.66-1-.66-1.59v-16.5c0-.6.24-1.17.66-1.6.42-.42 1-.65 1.59-.65h2.5a2.238 2.238 0 012.25 2.25v16.5c0 .59-.23 1.16-.66 1.59-.42.42-.99.66-1.59.66z"/></g></svg>