<svg width="80" height="80" fill="none" xmlns="http://www.w3.org/2000/svg"><defs><clipPath id="a"><path transform="translate(20 20)" fill="#fff" fill-opacity="0" d="M0 0h40v40H0z"/></clipPath></defs><circle cx="40" cy="40" r="40" fill="#FFF" opacity=".1"/><path d="M20 20h40v40H20z"/><g clip-path="url(#a)" fill="#3671E9"><path d="M45.98 25.04C44.46 23.4 42.34 22.5 40 22.5c-2.36 0-4.49.89-6 2.52-1.53 1.65-2.28 3.9-2.1 6.32.34 4.77 3.98 8.66 8.1 8.66 4.11 0 7.74-3.89 8.09-8.66.18-2.4-.57-4.64-2.11-6.3zm7.76 32.46h-27.5c-.35 0-.71-.08-1.04-.23-.33-.15-.61-.37-.85-.64-.5-.61-.71-1.44-.56-2.28.66-3.66 2.72-6.73 5.95-8.89 2.88-1.91 6.52-2.96 10.25-2.96 3.74 0 7.38 1.05 10.25 2.96 3.24 2.16 5.3 5.23 5.96 8.89.15.84-.06 1.67-.56 2.27-.24.28-.52.5-.85.65-.33.15-.69.23-1.05.23z"/></g></svg>