<svg width="135" height="40" fill="none" xmlns="http://www.w3.org/2000/svg"><path d="M20 40c11.04 0 20-8.96 20-20C40 8.95 31.04 0 20 0 8.95 0 0 8.95 0 20c0 11.04 8.95 20 20 20z" fill="#FFF" fill-opacity=".1"/><path d="M11.896 19.982a8.142 8.142 0 006.946 8.057v4.24c-6.256-.6-11.15-5.876-11.15-12.297s4.894-11.698 11.15-12.297v4.24a8.141 8.141 0 00-6.945 8.057z" clip-rule="evenodd" fill="#FFF" fill-rule="evenodd"/><g style="mix-blend-mode:normal" fill="#FFF"><path d="M26.99 12l-.11.37v10.76l.11.11 5-2.95-5-8.29z"/><path d="M26.99 12L22 20.29l4.99 2.95V12zm0 12.87l-.06.07v3.84l.06.18L32 21.92l-5.01 2.95z"/><path d="M26.99 28.96v-4.09L22 21.92l4.99 7.04zm0-5.72l5-2.95-5-2.27v5.22z"/><path d="M22 20.29l4.99 2.95v-5.22L22 20.29z"/></g><path d="M62.95 12.72c2.9 0 5.14 1.69 5.54 4.6H66.1c-.27-1.56-1.52-2.47-3.11-2.47-2.14 0-3.65 1.65-3.65 4.6 0 3 1.52 4.59 3.64 4.59 1.57 0 2.82-.86 3.12-2.39l2.39.01c-.36 2.5-2.43 4.52-5.54 4.52-3.45 0-6-2.51-6-6.73 0-4.23 2.58-6.73 6-6.73zm64.91 0c3.43 0 6.01 2.5 6.01 6.73s-2.58 6.73-6.01 6.73c-3.44 0-6.02-2.51-6.02-6.73 0-4.23 2.58-6.73 6.02-6.73zM73.76 26h-2.37V12.9h4.91c3.01 0 4.61 1.69 4.61 4.19 0 1.78-.81 3.1-2.35 3.72L81.39 26h-2.64l-2.57-4.8h-2.42V26zm12.82-3.23L85.5 26h-2.53l4.61-13.1h2.93L95.12 26h-2.53l-1.09-3.23h-4.92zM99.94 26h-2.37V12.9h4.91c3.01 0 4.61 1.84 4.61 4.34 0 2.51-1.62 4.33-4.64 4.33h-2.51V26zm12.3 0h-2.37V12.9h4.91c3.01 0 4.62 1.84 4.62 4.34 0 2.51-1.63 4.33-4.65 4.33h-2.51V26zm15.62-1.96c2.13 0 3.63-1.61 3.63-4.59 0-2.98-1.5-4.6-3.63-4.6s-3.63 1.62-3.63 4.6c0 2.98 1.5 4.59 3.63 4.59zm-54.1-9.15v4.34h2.19c1.76 0 2.55-.75 2.55-2.14 0-1.39-.79-2.2-2.56-2.2h-2.18zm26.18 0v4.73h2.19c1.76 0 2.55-.99 2.55-2.38 0-1.4-.79-2.35-2.57-2.35h-2.17zm12.3 0v4.73h2.19c1.76 0 2.55-.99 2.55-2.38 0-1.4-.79-2.35-2.56-2.35h-2.18zm-23.25.7l-1.77 5.27h3.65l-1.77-5.27h-.11z" fill="#FFF" fill-rule="evenodd"/></svg>