<svg width="604" height="585.154" fill="none" xmlns="http://www.w3.org/2000/svg"><defs><linearGradient x1="513.95" y1="530.116" x2="593.247" y2="575.916" id="a" gradientUnits="userSpaceOnUse"><stop stop-color="#BCBEFF"/><stop offset=".23" stop-color="#AAADF8"/><stop offset=".68" stop-color="#7C83E5"/><stop offset="1" stop-color="#5761D7"/></linearGradient><linearGradient x1="504.003" y1="547.437" x2="603.935" y2="547.437" id="b" gradientUnits="userSpaceOnUse"><stop stop-color="#E9E9FD"/><stop offset=".36" stop-color="#D3D2F9"/><stop offset=".71" stop-color="#C5C4F7"/><stop offset="1" stop-color="#C0BFF6"/></linearGradient><linearGradient x1="52360.031" y1="9528.59" x2="56440.949" y2="10466.289" id="c" gradientUnits="userSpaceOnUse"><stop stop-color="#BCBEFF"/><stop offset=".23" stop-color="#AAADF8"/><stop offset=".68" stop-color="#7C83E5"/><stop offset="1" stop-color="#5761D7"/></linearGradient><linearGradient x1="51816.953" y1="14075.758" x2="56956.742" y2="14075.758" id="d" gradientUnits="userSpaceOnUse"><stop stop-color="#E9E9FD"/><stop offset=".36" stop-color="#D3D2F9"/><stop offset=".71" stop-color="#C5C4F7"/><stop offset="1" stop-color="#C0BFF6"/></linearGradient><linearGradient x1="364.96" y1="453.479" x2="535.052" y2="453.479" id="e" gradientUnits="userSpaceOnUse"><stop stop-color="#5778FF"/><stop offset=".104" stop-color="#567FFF"/><stop offset=".261" stop-color="#5394FF"/><stop offset=".45" stop-color="#4DB6FF"/><stop offset=".664" stop-color="#46E4FF"/><stop offset=".774" stop-color="#42FFFF"/></linearGradient><linearGradient x1="43049.844" y1="11841.188" x2="47130.828" y2="12778.868" id="f" gradientUnits="userSpaceOnUse"><stop stop-color="#BCBEFF"/><stop offset=".23" stop-color="#AAADF8"/><stop offset=".68" stop-color="#7C83E5"/><stop offset="1" stop-color="#5761D7"/></linearGradient><linearGradient x1="42531.586" y1="17439.744" x2="47674.805" y2="17439.744" id="g" gradientUnits="userSpaceOnUse"><stop stop-color="#E9E9FD"/><stop offset=".36" stop-color="#D3D2F9"/><stop offset=".71" stop-color="#C5C4F7"/><stop offset="1" stop-color="#C0BFF6"/></linearGradient><linearGradient x1="43049.758" y1="10492.604" x2="47130.738" y2="11429.463" id="h" gradientUnits="userSpaceOnUse"><stop stop-color="#BCBEFF"/><stop offset=".23" stop-color="#AAADF8"/><stop offset=".68" stop-color="#7C83E5"/><stop offset="1" stop-color="#5761D7"/></linearGradient><linearGradient x1="42531.586" y1="15503.945" x2="47674.805" y2="15503.945" id="i" gradientUnits="userSpaceOnUse"><stop stop-color="#E9E9FD"/><stop offset=".36" stop-color="#D3D2F9"/><stop offset=".71" stop-color="#C5C4F7"/><stop offset="1" stop-color="#C0BFF6"/></linearGradient><linearGradient x1="224.231" y1="469.7" x2="54.141" y2="470.704" id="j" gradientUnits="userSpaceOnUse"><stop stop-color="#5778FF"/><stop offset=".104" stop-color="#567FFF"/><stop offset=".261" stop-color="#5394FF"/><stop offset=".45" stop-color="#4DB6FF"/><stop offset=".664" stop-color="#46E4FF"/><stop offset=".774" stop-color="#42FFFF"/></linearGradient><linearGradient x1="26610.719" y1="5161.888" x2="30687.771" y2="6098.737" id="k" gradientUnits="userSpaceOnUse"><stop stop-color="#BCBEFF"/><stop offset=".23" stop-color="#AAADF8"/><stop offset=".68" stop-color="#7C83E5"/><stop offset="1" stop-color="#5761D7"/></linearGradient><linearGradient x1="26074.447" y1="7900.771" x2="31208.479" y2="7900.771" id="l" gradientUnits="userSpaceOnUse"><stop stop-color="#E9E9FD"/><stop offset=".36" stop-color="#D3D2F9"/><stop offset=".71" stop-color="#C5C4F7"/><stop offset="1" stop-color="#C0BFF6"/></linearGradient><linearGradient x1="26610.725" y1="3948.122" x2="30687.779" y2="4886.931" id="m" gradientUnits="userSpaceOnUse"><stop stop-color="#BCBEFF"/><stop offset=".23" stop-color="#AAADF8"/><stop offset=".68" stop-color="#7C83E5"/><stop offset="1" stop-color="#5761D7"/></linearGradient><linearGradient x1="517.703" y1="116.854" x2="588.377" y2="157.697" id="n" gradientUnits="userSpaceOnUse"><stop offset=".24" stop-color="#5761D7"/><stop offset=".39" stop-color="#7A82E5"/><stop offset=".55" stop-color="#979CF0"/><stop offset=".7" stop-color="#ACAFF8"/><stop offset=".85" stop-color="#B8BAFD"/><stop offset="1" stop-color="#BCBEFF"/></linearGradient><linearGradient x1="26099.318" y1="6150.71" x2="31238.342" y2="6150.71" id="o" gradientUnits="userSpaceOnUse"><stop stop-color="#E9E9FD"/><stop offset=".36" stop-color="#D3D2F9"/><stop offset=".71" stop-color="#C5C4F7"/><stop offset="1" stop-color="#C0BFF6"/></linearGradient><linearGradient x1="25381.094" y1="5963.931" x2="30207.336" y2="5963.931" id="p" gradientUnits="userSpaceOnUse"><stop stop-color="#E9E9FD"/><stop offset=".36" stop-color="#D3D2F9"/><stop offset=".71" stop-color="#C5C4F7"/><stop offset="1" stop-color="#C0BFF6"/></linearGradient><linearGradient x1="411.84" y1="311.499" x2="496.887" y2="164.194" id="q" gradientUnits="userSpaceOnUse"><stop stop-color="#5778FF"/><stop offset=".104" stop-color="#567FFF"/><stop offset=".261" stop-color="#5394FF"/><stop offset=".45" stop-color="#4DB6FF"/><stop offset=".664" stop-color="#46E4FF"/><stop offset=".774" stop-color="#42FFFF"/></linearGradient><linearGradient x1="99912.969" y1="-16197.727" x2="139624.594" y2="1809.18" id="r" gradientUnits="userSpaceOnUse"><stop stop-color="#35068C"/><stop offset=".02" stop-color="#40DDDA"/><stop offset=".09" stop-color="#3AAEC0"/><stop offset=".17" stop-color="#3484A9"/><stop offset=".26" stop-color="#2F6195"/><stop offset=".35" stop-color="#2B4486"/><stop offset=".44" stop-color="#282E79"/><stop offset=".54" stop-color="#261E71"/><stop offset=".66" stop-color="#24156C"/><stop offset=".82" stop-color="#24126A"/></linearGradient><linearGradient x1="109.179" y1="362.675" x2="420.214" y2="362.675" id="s" gradientUnits="userSpaceOnUse"><stop stop-color="#3671E9"/><stop offset=".15" stop-color="#91A2FA"/><stop offset=".33" stop-color="#8B97F1"/><stop offset=".52" stop-color="#7366C8"/><stop offset=".72" stop-color="#654CB3"/><stop offset=".93" stop-color="#4127A7"/><stop offset="1" stop-color="#260672"/></linearGradient><linearGradient x1="22161.818" y1="45113.426" x2="84817.148" y2="45113.426" id="t" gradientUnits="userSpaceOnUse"><stop stop-color="#42E8E0"/><stop offset=".15" stop-color="#43E3E0"/><stop offset=".33" stop-color="#45D5DF"/><stop offset=".52" stop-color="#49BDDD"/><stop offset=".72" stop-color="#4E9CDB"/><stop offset=".93" stop-color="#5472D8"/><stop offset="1" stop-color="#5761D7"/></linearGradient><linearGradient x1="102647.602" y1="-22241.807" x2="142362.375" y2="-4236.734" id="u" gradientUnits="userSpaceOnUse"><stop stop-color="#654CB2"/><stop offset=".02" stop-color="#40DDDA"/><stop offset=".09" stop-color="#3AAEC0"/><stop offset=".17" stop-color="#3484A9"/><stop offset=".26" stop-color="#2F6195"/><stop offset=".35" stop-color="#2B4486"/><stop offset=".44" stop-color="#282E79"/><stop offset=".54" stop-color="#261E71"/><stop offset=".66" stop-color="#24156C"/><stop offset=".82" stop-color="#24126A"/></linearGradient><linearGradient x1="265.442" y1="212.227" x2="343.162" y2="600.951" id="v" gradientUnits="userSpaceOnUse"><stop stop-color="#42E8E0"/><stop offset=".02" stop-color="#40DDDA"/><stop offset=".09" stop-color="#3AAEC0"/><stop offset=".17" stop-color="#3484A9"/><stop offset=".26" stop-color="#2F6195"/><stop offset=".35" stop-color="#2B4486"/><stop offset=".44" stop-color="#282E79"/><stop offset=".54" stop-color="#261E71"/><stop offset=".66" stop-color="#24156C"/><stop offset=".82" stop-color="#24126A"/></linearGradient><linearGradient x1="150.874" y1="296.03" x2="429.066" y2="296.03" id="w" gradientUnits="userSpaceOnUse"><stop stop-color="#2B237C"/><stop offset="1" stop-color="#180D5B"/></linearGradient><linearGradient x1="20001.924" y1="28406.574" x2="42857.52" y2="28406.574" id="x" gradientUnits="userSpaceOnUse"><stop stop-color="#2B237C"/><stop offset="1" stop-color="#180D5B"/></linearGradient><linearGradient x1="1070.933" y1="2185.27" x2="1074.005" y2="2245.051" id="y" gradientUnits="userSpaceOnUse"><stop stop-color="#2B237D"/><stop offset=".02" stop-color="#40DDDA"/><stop offset=".09" stop-color="#3AAEC0"/><stop offset=".17" stop-color="#3484A9"/><stop offset=".26" stop-color="#2F6195"/><stop offset=".35" stop-color="#2B4486"/><stop offset=".44" stop-color="#282E79"/><stop offset=".54" stop-color="#261E71"/><stop offset=".66" stop-color="#24156C"/><stop offset=".82" stop-color="#24126A"/></linearGradient><linearGradient x1="1199.547" y1="2106.982" x2="1202.573" y2="2166.763" id="z" gradientUnits="userSpaceOnUse"><stop stop-color="#2C247E"/><stop offset=".02" stop-color="#40DDDA"/><stop offset=".09" stop-color="#3AAEC0"/><stop offset=".17" stop-color="#3484A9"/><stop offset=".26" stop-color="#2F6195"/><stop offset=".35" stop-color="#2B4486"/><stop offset=".44" stop-color="#282E79"/><stop offset=".54" stop-color="#261E71"/><stop offset=".66" stop-color="#24156C"/><stop offset=".82" stop-color="#24126A"/></linearGradient><linearGradient x1="1500.102" y1="2571.072" x2="1503.396" y2="2655.644" id="A" gradientUnits="userSpaceOnUse"><stop stop-color="#2B237C"/><stop offset="1" stop-color="#180D5B"/></linearGradient><linearGradient x1="2503.467" y1="3407.328" x2="2586.024" y2="3428.806" id="B" gradientUnits="userSpaceOnUse"><stop stop-color="#2B237C"/><stop offset="1" stop-color="#180D5B"/></linearGradient><linearGradient x1="20982.283" y1="26289.242" x2="96608.672" y2="35443.664" id="C" gradientUnits="userSpaceOnUse"><stop stop-color="#654DB3"/><stop offset=".09" stop-color="#40DDDA"/><stop offset=".09" stop-color="#E9E9FE"/><stop offset=".17" stop-color="#654DB3"/><stop offset=".26" stop-color="#2F6195"/><stop offset=".35" stop-color="#2B4486"/><stop offset=".44" stop-color="#282E79"/><stop offset=".54" stop-color="#261E71"/><stop offset=".66" stop-color="#24156C"/><stop offset=".82" stop-color="#24126A"/></linearGradient><linearGradient x1="3177.805" y1="5207.829" x2="3313.651" y2="5247.398" id="D" gradientUnits="userSpaceOnUse"><stop stop-color="#2B237C"/><stop offset="1" stop-color="#180D5B"/></linearGradient><linearGradient x1="2978.493" y1="5362.916" x2="3114.339" y2="5402.485" id="E" gradientUnits="userSpaceOnUse"><stop stop-color="#2B237C"/><stop offset="1" stop-color="#180D5B"/></linearGradient><linearGradient x1="2520.203" y1="5510.319" x2="2687.569" y2="5559.02" id="F" gradientUnits="userSpaceOnUse"><stop stop-color="#2B237C"/><stop offset="1" stop-color="#180D5B"/></linearGradient><linearGradient x1="1590.873" y1="4620.31" x2="1603.375" y2="4913.303" id="G" gradientUnits="userSpaceOnUse"><stop stop-color="#2C247D"/><stop offset=".02" stop-color="#40DDDA"/><stop offset=".09" stop-color="#3AAEC0"/><stop offset=".17" stop-color="#3484A9"/><stop offset=".26" stop-color="#2F6195"/><stop offset=".35" stop-color="#2B4486"/><stop offset=".44" stop-color="#282E79"/><stop offset=".54" stop-color="#261E71"/><stop offset=".66" stop-color="#24156C"/><stop offset=".82" stop-color="#24126A"/></linearGradient><linearGradient x1="1942.176" y1="4878.14" x2="1956.073" y2="5179.986" id="H" gradientUnits="userSpaceOnUse"><stop stop-color="#2B237C"/><stop offset="1" stop-color="#180D5B"/></linearGradient><linearGradient x1="14272.208" y1="14027.092" x2="14579.932" y2="17327.18" id="I" gradientUnits="userSpaceOnUse"><stop stop-color="#91A2FA"/><stop offset=".02" stop-color="#91A2FA"/><stop offset=".02" stop-color="#654DB3"/><stop offset=".09" stop-color="#654DB3"/><stop offset=".17" stop-color="#654DB3"/><stop offset=".26" stop-color="#654CB3"/><stop offset=".35" stop-color="#35068C"/><stop offset=".44" stop-color="#35068C"/><stop offset=".54" stop-color="#35068C"/><stop offset=".66" stop-color="#35068C"/><stop offset=".82" stop-color="#35068C"/></linearGradient></defs><g opacity=".3"><path d="M603.93 556.14v-8.71l-2.39-1.34c-.68 4.1-5.52 6.82-9.58 7.39l-27.53 16.11-12.01 4.34-38.38-19.81.9-.51c-3.29-1.53-5.06-5.03-6.82-8.24l-2.59 1.54-1.53.44v8.93c.1 1.01.46 1.98 1.06 2.81.59.83 1.39 1.49 2.32 1.91l38.49 22.2c2.53 1.28 5.33 1.94 8.16 1.94 2.84 0 5.63-.66 8.16-1.94l38.44-22.2a5.84 5.84 0 002.28-1.87c.59-.81.96-1.76 1.08-2.76.01-.07.01-.15 0-.23h-.06z" fill="url(#a)" opacity=".3"/><path d="M591.96 553.48l-27.53 16.11-10.46 3.78v11.78c2.84.05 5.65-.62 8.16-1.95l38.44-22.2a5.77 5.77 0 002.28-1.87c.59-.81.96-1.76 1.08-2.76.01-.07.01-.15 0-.23v-8.71l-2.2-1.22h-.23c-.74 4.04-5.52 6.63-9.54 7.27z" fill="#0F054C" opacity=".3"/><path d="M545.87 574.34l-38.43-22.2c-4.51-2.59-4.51-6.83 0-9.43l38.43-22.2c2.53-1.28 5.33-1.94 8.16-1.94 2.84 0 5.63.66 8.16 1.94l38.44 22.2c4.49 2.6 4.49 6.84 0 9.43l-38.44 22.2a18.062 18.062 0 01-8.16 1.95c-2.83 0-5.63-.67-8.16-1.95z" fill="url(#b)" opacity=".3"/><path d="M545.87 574.34l-38.43-22.2c-4.51-2.59-4.51-6.83 0-9.43l38.43-22.2c2.53-1.28 5.33-1.94 8.16-1.94 2.84 0 5.63.66 8.16 1.94l38.44 22.2c4.49 2.6 4.49 6.84 0 9.43l-38.44 22.2a18.062 18.062 0 01-8.16 1.95c-2.83 0-5.63-.67-8.16-1.95z" fill="#0F054C" opacity=".3"/></g><path d="M553.97 546.28c-2.52.05-5.01-.54-7.24-1.73l-38.44-22.2c-.91-.32-1.69-.91-2.25-1.69-.55-.79-.85-1.73-.85-2.69s.3-1.9.85-2.69c.56-.78 1.34-1.38 2.25-1.69l38.44-22.2c2.24-1.14 4.72-1.72 7.23-1.72 2.52 0 5 .58 7.24 1.72l38.45 22.2c.91.31 1.7.91 2.25 1.69.56.79.86 1.73.86 2.69s-.3 1.9-.86 2.69a4.63 4.63 0 01-2.25 1.69l-38.43 22.2a14.755 14.755 0 01-7.25 1.73zm0-55.94c-2.4-.05-4.78.51-6.91 1.63l-38.44 22.2c-.8.27-1.49.77-1.98 1.46-.49.68-.76 1.5-.76 2.34 0 .84.27 1.66.76 2.34.49.69 1.18 1.2 1.98 1.46l38.44 22.2c2.14 1.08 4.5 1.65 6.9 1.65 2.4 0 4.77-.57 6.91-1.65l38.44-22.24c.79-.26 1.49-.77 1.98-1.45.49-.69.76-1.51.76-2.35 0-.84-.27-1.66-.76-2.34a4.066 4.066 0 00-1.98-1.46l-38.44-22.2c-2.13-1.1-4.5-1.65-6.9-1.59z" fill="#42E8E0"/><path d="M603.93 509.45v-13.16l-2.39-1.35c-.68 4.13-5.52 6.83-9.58 7.39l-27.53 16.12-12.01 4.33-38.38-19.81.9-.5c-3.29-1.54-5.05-5.04-6.82-8.25l-2.59 1.54-1.53.45v13.37c.1 1.02.47 1.99 1.06 2.82.59.82 1.39 1.48 2.32 1.91l38.49 22.2c2.53 1.28 5.33 1.95 8.16 1.95 2.84 0 5.63-.67 8.16-1.95l38.44-22.2c.91-.42 1.69-1.07 2.28-1.88.59-.81.96-1.76 1.08-2.75.01-.08.01-.16 0-.23h-.06z" fill="#42E8E0" opacity=".4"/><path d="M603.93 497.74v-8.71l-2.39-1.34c-.68 4.12-5.52 6.83-9.58 7.39l-27.53 16.12-12.01 4.33-38.38-19.81.9-.5c-3.29-1.54-5.05-5.04-6.82-8.25l-2.59 1.56-1.53.43v8.92c.1 1.01.47 1.98 1.06 2.81.59.83 1.39 1.49 2.32 1.91l38.49 22.2a17.974 17.974 0 0016.32 0l38.44-22.2c.91-.41 1.69-1.06 2.28-1.87.59-.81.96-1.76 1.08-2.75.01-.08.01-.16 0-.24h-.06z" fill="url(#c)"/><path d="M591.96 495.08l-27.53 16.12-10.46 3.77v11.78c2.84.06 5.65-.61 8.16-1.95l38.44-22.2c.91-.41 1.7-1.06 2.28-1.87.59-.81.96-1.76 1.08-2.75.01-.08.01-.16 0-.24v-8.71l-2.2-1.22h-.23c-.74 4.04-5.52 6.71-9.54 7.27z" fill="#0F054C" opacity=".3"/><path d="M545.87 515.9l-38.43-22.2c-4.51-2.61-4.51-6.84 0-9.43l38.43-22.14c2.53-1.29 5.33-1.95 8.16-1.95 2.84 0 5.63.66 8.16 1.95l38.44 22.2c4.49 2.58 4.49 6.82 0 9.43l-38.49 22.14a18.111 18.111 0 01-8.14 1.92c-2.82 0-5.6-.65-8.13-1.92z" fill="url(#d)"/><path d="M600.57 493.76l-38.44 22.14a18.052 18.052 0 01-8.16 1.94c-2.83 0-5.63-.66-8.16-1.94l-38.43-22.2c-.84-.4-1.58-.98-2.16-1.7-.58-.73-.98-1.57-1.18-2.48-.28 1.94.85 3.89 3.34 5.25l38.49 22.26c2.53 1.28 5.33 1.95 8.16 1.95 2.84 0 5.63-.67 8.16-1.95l38.44-22.2a5.477 5.477 0 002.49-2.1c.59-.94.88-2.04.83-3.15-.21.91-.62 1.76-1.21 2.48-.58.73-1.33 1.31-2.17 1.7z" fill="#FFF"/><path d="M534.67 488l-87.42-52.32-27.8 16.03h-.32L365 419.81l.32-.81 54.13 31.74 27.8-16.03.65.32 87.1 52.16-.33.81z" fill="url(#e)"/><g opacity=".3"><path d="M99.99 555.2v-8.71l-2.41-1.34c-.68 4.12-5.52 6.82-9.56 7.38l-27.57 16.12-12.01 4.34-38.39-19.81.89-.51c-3.29-1.53-5.05-5.03-6.82-8.24l-2.59 1.55-1.53.43v8.92c.1 1.02.46 1.99 1.06 2.82.59.83 1.39 1.49 2.32 1.91l38.45 22.2c2.53 1.28 5.33 1.95 8.16 1.95 2.84 0 5.64-.67 8.17-1.95l38.45-22.2a5.83 5.83 0 002.3-1.87c.59-.81.97-1.76 1.08-2.76v-.23z" fill="url(#f)" opacity=".3"/><path d="M88.02 552.57l-27.57 16.12-10.46 3.77v11.78c2.85.06 5.66-.61 8.17-1.94l38.45-22.2a5.83 5.83 0 002.3-1.87c.59-.81.97-1.76 1.08-2.76v-8.94l-2.21-1.23h-.24c-.73 4.01-5.52 6.67-9.52 7.27z" fill="#0F054C" opacity=".3"/><path d="M41.83 573.41l-38.45-22.2c-4.51-2.6-4.51-6.84 0-9.43l38.45-22.25a17.984 17.984 0 0116.33 0l38.45 22.2c4.49 2.58 4.49 6.82 0 9.42l-38.45 22.26a18.094 18.094 0 01-8.17 1.94c-2.83 0-5.63-.66-8.16-1.94z" fill="url(#g)" opacity=".3"/><path d="M41.83 573.41l-38.45-22.2c-4.51-2.6-4.51-6.84 0-9.43l38.45-22.25a17.984 17.984 0 0116.33 0l38.45 22.2c4.49 2.58 4.49 6.82 0 9.42l-38.45 22.26a18.083 18.083 0 01-8.16 1.94c-2.84 0-5.64-.66-8.17-1.94z" fill="#0F054C" opacity=".3"/></g><path d="M49.99 541.11c-2.52.05-5.02-.55-7.25-1.73L4.29 517.17c-.9-.32-1.68-.91-2.23-1.69a4.631 4.631 0 010-5.35c.55-.79 1.33-1.38 2.23-1.7l38.45-22.2c2.25-1.14 4.73-1.74 7.25-1.74 2.52 0 5.01.6 7.26 1.74l38.45 22.2c.9.32 1.68.91 2.23 1.7a4.631 4.631 0 01-2.23 7.04l-38.45 22.21a14.903 14.903 0 01-7.26 1.73zm-6.92-2.32c2.15 1.09 4.51 1.65 6.92 1.65 2.4 0 4.76-.56 6.91-1.65l38.45-22.2a3.88 3.88 0 003.02-3.79c0-.88-.3-1.74-.85-2.42a3.895 3.895 0 00-2.17-1.37l-38.45-22.2a15.233 15.233 0 00-13.83 0l-38.45 22.2c-.86.2-1.62.68-2.17 1.37-.55.68-.85 1.54-.85 2.42a3.88 3.88 0 003.02 3.79l38.45 22.2z" fill="#42E8E0"/><path d="M99.99 504.29v-13.18l-2.41-1.35c-.68 4.13-5.52 6.83-9.56 7.39l-27.57 16.12-12.01 4.31-38.39-19.81.89-.5c-3.29-1.54-5.05-5.04-6.82-8.24l-2.59 1.55-1.53.43v13.39c.09 1.02.45 1.99 1.05 2.81.59.83 1.4 1.49 2.33 1.9l38.45 22.2c2.53 1.28 5.33 1.95 8.16 1.95 2.84 0 5.64-.67 8.17-1.95l38.45-22.2a5.83 5.83 0 002.3-1.87c.59-.81.97-1.76 1.08-2.76v-.23.04z" fill="#42E8E0" opacity=".4"/><path d="M99.99 492.56v-8.71l-2.41-1.34c-.68 4.12-5.52 6.83-9.56 7.39l-27.57 16.12-12.01 4.33-38.39-19.81.89-.5c-3.29-1.54-5.05-5.04-6.82-8.23l-2.59 1.54-1.53.43v8.94c.1 1.01.47 1.98 1.06 2.8.59.83 1.39 1.48 2.32 1.9l38.45 22.2a17.984 17.984 0 0016.33 0l38.45-22.2c.92-.41 1.71-1.06 2.3-1.87.59-.81.97-1.76 1.08-2.75v-.24z" fill="url(#h)"/><path d="M41.83 510.78l-38.45-22.2c-4.51-2.61-4.51-6.84 0-9.43l38.45-22.2c2.53-1.29 5.33-1.95 8.16-1.95 2.84 0 5.64.66 8.17 1.95l38.45 22.2c4.49 2.6 4.49 6.82 0 9.43l-38.45 22.2a18.104 18.104 0 01-8.17 1.95c-2.83 0-5.63-.67-8.16-1.95z" fill="url(#i)"/><path d="M50 506.73c-2.28.06-4.54-.48-6.56-1.55l-30.03-17.34c-.82-.29-1.53-.83-2.03-1.54a4.17 4.17 0 01-.78-2.44c0-.87.27-1.72.78-2.43.5-.71 1.21-1.25 2.03-1.54l30.03-17.34a14.39 14.39 0 0113.11 0l30.03 17.34c.82.29 1.53.83 2.04 1.54a4.232 4.232 0 010 4.87 4.27 4.27 0 01-2.04 1.54l-30.03 17.34a13.242 13.242 0 01-6.55 1.55zm-6.22-2.13c1.92.97 4.05 1.48 6.21 1.48s4.28-.51 6.21-1.48l30.05-17.34c.72-.23 1.35-.68 1.8-1.29a3.552 3.552 0 000-4.21 3.594 3.594 0 00-1.8-1.29L56.2 463.15a13.694 13.694 0 00-12.42 0l-30.04 17.34c-.67.29-1.26.76-1.69 1.36-.44.59-.7 1.29-.78 2.02.08.74.35 1.44.78 2.04.43.59 1.02 1.07 1.69 1.37l30.04 17.32z" fill="#5351AF"/><path d="M96.61 488.58l-38.45 22.2a18.104 18.104 0 01-8.17 1.95c-2.83 0-5.63-.67-8.16-1.95l-38.45-22.2c-.84-.4-1.58-.98-2.16-1.7-.58-.73-.98-1.58-1.19-2.48-.04 1.11.26 2.21.85 3.16.6.94 1.47 1.67 2.5 2.11l38.45 22.2c2.53 1.27 5.33 1.94 8.16 1.94 2.84 0 5.64-.67 8.17-1.94l38.45-22.2a5.457 5.457 0 003.33-5.27c-.2.9-.61 1.75-1.18 2.47-.58.73-1.31 1.31-2.15 1.71z" fill="#FFF"/><path d="M54.7 503.44l87.13-50.14 27.89 15.05h.32L224 437.76l-.33-.76-53.96 30.43-27.88-15.05-.65.31-86.8 49.98.32.77z" fill="url(#j)"/><g opacity=".3"><path d="M602.9 202.89v-8.71l-2.41-1.34c-.68 4.1-5.51 6.82-9.55 7.39l-27.54 16.09-12.01 4.36-38.35-19.81.89-.53c-3.28-1.51-5.05-5.03-6.82-8.22l-2.58 1.54-1.53.42v8.95c.09 1.01.45 1.98 1.04 2.81.6.83 1.4 1.48 2.34 1.89l38.41 22.2a17.943 17.943 0 0016.31 0l38.42-22.2c.91-.41 1.7-1.06 2.3-1.87.59-.81.96-1.76 1.08-2.75v-.22z" fill="url(#k)" opacity=".3"/><path d="M590.94 200.23l-27.54 16.09-10.45 3.79v11.79c2.84.05 5.64-.61 8.15-1.95l38.42-22.2c.91-.41 1.7-1.06 2.3-1.87.59-.81.96-1.76 1.08-2.76v-8.92l-2.2-1.22h-.23c-.78 4.02-5.53 6.68-9.53 7.25z" fill="#0F054C" opacity=".3"/><path d="M544.79 221.09l-38.32-22.2c-4.5-2.61-4.5-6.83 0-9.43l38.32-22.28a18.02 18.02 0 0116.31 0l38.42 22.2c4.51 2.61 4.51 6.82 0 9.43l-38.42 22.2c-2.52 1.3-5.31 1.98-8.14 1.99-2.84.01-5.64-.64-8.17-1.91z" fill="url(#l)" opacity=".3"/><path d="M544.79 221.09l-38.32-22.2c-4.5-2.61-4.5-6.83 0-9.43l38.32-22.28a18.02 18.02 0 0116.31 0l38.42 22.2c4.51 2.61 4.51 6.82 0 9.43l-38.42 22.2c-2.52 1.3-5.31 1.98-8.14 1.99-2.84.01-5.64-.64-8.17-1.91z" fill="#0F054C" opacity=".3"/></g><path d="M552.95 194.49c-2.52.05-5.02-.55-7.25-1.73l-38.41-22.2c-.91-.32-1.69-.91-2.25-1.69-.56-.79-.86-1.73-.86-2.69s.3-1.9.86-2.69c.56-.78 1.34-1.38 2.25-1.69l38.41-22.21c2.25-1.13 4.73-1.72 7.25-1.72 2.51 0 4.99.59 7.24 1.72l38.42 22.21c.9.31 1.69.91 2.25 1.69.55.79.85 1.73.85 2.69s-.3 1.9-.85 2.69c-.56.78-1.35 1.37-2.25 1.69l-38.42 22.2a14.853 14.853 0 01-7.24 1.73zm0-55.96c-2.4-.05-4.77.52-6.9 1.65l-38.43 22.2c-.8.26-1.49.77-1.98 1.46-.5.68-.76 1.5-.76 2.34 0 .84.26 1.66.76 2.34.49.68 1.18 1.19 1.98 1.46l38.43 22.2c2.14 1.08 4.51 1.65 6.91 1.65 2.4 0 4.76-.57 6.9-1.65l38.42-22.2c.79-.27 1.49-.78 1.98-1.46.49-.68.76-1.5.76-2.34 0-.84-.27-1.66-.76-2.34-.49-.69-1.19-1.2-1.98-1.46l-38.42-22.2c-2.13-1.13-4.51-1.7-6.91-1.65z" fill="#42E8E0"/><path d="M602.9 157.65v-13.16l-2.41-1.34c-.68 4.1-5.51 6.83-9.55 7.39l-27.54 16.11-12.01 4.42-38.35-19.81.89-.51c-3.28-1.53-5.05-5.03-6.82-8.24l-2.58 1.54-1.53.44v13.38c.12 1.01.51 1.97 1.12 2.78a5.77 5.77 0 002.35 1.86l38.32 22.17a18.02 18.02 0 0016.31 0l38.42-22.2c.91-.42 1.7-1.06 2.3-1.87.59-.81.96-1.76 1.08-2.76v-.23.03z" fill="#42E8E0" opacity=".4"/><path d="M602.9 145.95v-8.71l-2.41-1.34c-.68 4.1-5.51 6.82-9.55 7.39L563.4 159.4l-12.01 4.34-38.35-19.89.89-.5c-3.28-1.54-5.05-5.04-6.82-8.25l-2.58 1.54-1.53.45v8.92c.1 1.01.46 1.98 1.06 2.81.59.83 1.39 1.49 2.32 1.91l38.41 22.28c2.53 1.28 5.33 1.94 8.16 1.94s5.62-.66 8.15-1.94l38.42-22.2c.91-.41 1.7-1.06 2.3-1.87.59-.81.96-1.76 1.08-2.76v-.23z" fill="url(#m)"/><path d="M590.93 143.29L563.4 159.4l-10.45 3.77v11.79c2.84.05 5.64-.61 8.15-1.95l38.42-22.2c.91-.41 1.7-1.06 2.3-1.87.59-.81.96-1.76 1.08-2.75v-8.95l-2.2-1.22h-.23c-.78 4.04-5.53 6.7-9.54 7.27z" fill="#0F054C" opacity=".3"/><path d="M513.93 143.42l36.41-20.95a5.836 5.836 0 015.23 0l35.75 20.66-.38.24c4.04-.57 8.87-3.29 9.55-7.39l-40.14-22.36-11.66-3.09-9.51 5.6-32.05 19.13c1.75 3.13 3.52 6.65 6.8 8.16z" fill="url(#n)"/><path d="M552.95 111.6l-4.28-1.15-9.51 5.6-32.05 19.13c1.77 3.21 3.54 6.71 6.82 8.24l36.41-20.95c.8-.44 1.7-.66 2.61-.64V111.6z" fill="#0F054C" opacity=".3"/><path d="M544.79 164.15l-38.32-22.24c-4.5-2.59-4.5-6.83 0-9.43l38.42-22.2c2.53-1.28 5.32-1.94 8.15-1.94 2.84 0 5.63.66 8.16 1.94l38.42 22.2c4.5 2.6 4.5 6.84 0 9.43l-38.42 22.2c-2.54 1.3-5.35 1.99-8.2 2-2.85 0-5.67-.67-8.21-1.96zm10.78-50.55c-.81-.4-1.71-.62-2.61-.62-.91 0-1.81.22-2.62.62l-38.41 22.2c-.32.11-.6.31-.8.58-.19.27-.3.6-.3.94 0 .34.11.66.3.94.2.27.48.47.8.58l38.41 22.2c.81.4 1.71.62 2.62.62.9 0 1.8-.22 2.61-.62l38.41-22.2c.32-.12.58-.32.77-.59.19-.28.3-.6.3-.93 0-.33-.11-.65-.3-.93a1.62 1.62 0 00-.77-.59l-38.41-22.2z" fill="url(#o)"/><path d="M593.98 135.73l-38.41-22.2c-.81-.41-1.71-.62-2.61-.62-.91 0-1.81.21-2.62.62l-38.41 22.2c-.97.56-1.28 1.34-.97 2.06.22-.42.55-.76.97-.98l38.41-22.12c.81-.41 1.71-.62 2.62-.62.9 0 1.8.21 2.61.62l38.41 22.2c.41.22.74.56.96.97.31-.79 0-1.57-.96-2.13z" fill="#FFF"/><path d="M599.52 141.91l-38.41 22.2a18.093 18.093 0 01-8.16 1.95c-2.84 0-5.63-.67-8.16-1.95l-38.32-22.2a6.1 6.1 0 01-2.15-1.69c-.58-.72-.99-1.57-1.19-2.47-.04 1.11.26 2.21.85 3.14.6.94 1.47 1.68 2.49 2.11l38.32 22.24c2.53 1.28 5.32 1.95 8.16 1.95 2.83 0 5.63-.67 8.16-1.95l38.41-22.21a5.427 5.427 0 002.49-2.1c.6-.93.89-2.03.85-3.14-.2.89-.61 1.73-1.19 2.44-.58.72-1.31 1.29-2.15 1.68z" fill="#FFF"/><path d="M545.88 163.53l-38.42-22.21c-3.88-2.25-3.88-5.83 0-8.16l38.42-22.2a15.545 15.545 0 0114.14 0l38.41 22.2c3.89 2.25 3.89 5.83 0 8.16l-38.41 22.21c-2.19 1.11-4.62 1.7-7.07 1.7-2.46 0-4.88-.59-7.07-1.7zm10.76-50.55a8.161 8.161 0 00-3.69-.89c-1.29 0-2.55.31-3.69.89l-38.42 22.12c-.45.15-.84.44-1.11.82-.28.39-.43.85-.43 1.32 0 .47.15.93.43 1.32.27.38.66.67 1.11.82l38.36 22.2c1.14.58 2.41.87 3.69.87 1.28 0 2.54-.29 3.69-.87l38.43-22.2a2.3 2.3 0 001.12-.82c.27-.39.42-.85.42-1.32 0-.47-.15-.93-.42-1.32a2.3 2.3 0 00-1.12-.82l-38.37-22.12z" fill="url(#p)"/><path d="M555.57 113.53c-.81-.41-1.7-.62-2.61-.62-.91 0-1.8.21-2.61.62l-38.42 22.2c-.32.1-.6.3-.8.57-.19.28-.3.61-.3.94 0 .34.11.67.3.94.2.27.48.47.8.58l38.42 22.2c.81.41 1.7.62 2.61.62.91 0 1.8-.21 2.61-.62l38.42-22.2c.31-.12.58-.32.77-.59a1.625 1.625 0 000-1.85c-.19-.27-.46-.48-.77-.59l-38.42-22.2z" fill="#42E8E0" opacity=".4"/><path d="M595.05 137.2V0h-84.21v137.14c.02.34.14.66.33.94.19.27.45.49.76.62l38.41 22.2a5.836 5.836 0 005.23 0l38.42-22.2c.28-.14.53-.35.72-.61.18-.27.3-.57.34-.89z" opacity=".5"/><path d="M526.59 181.78l-89.02 49.55-.01 32.09-.16.28-54.7 30.92-.54-.68 54.56-31.01.01-32.09.6-.4 88.72-49.35.54.69z" fill="url(#q)"/><path d="M471.02 322.29l15.06 8.72v34.82l-15.06-8.71v-34.83z" fill="#758EF5" opacity=".5"/><path d="M455.96 331.01l15.06 8.7v17.41l-15.06-8.7v-17.41z" fill="#758EF5" opacity=".2"/><path d="M440.89 270.05l15.07 8.72v69.65l-15.07-8.71v-69.66z" fill="#758EF5" opacity=".5"/><path d="M425.81 243.94l15.08 8.71v87.06l-15.08-8.7v-87.07z" fill="#758EF5" opacity=".2"/><path d="M410.75 252.65l15.06 8.7v69.66l-15.06-8.72v-69.64z" fill="#758EF5" opacity=".5"/><path d="M395.69 191.71l15.06 8.7v121.88l-15.06-8.7V191.71z" fill="#758EF5" opacity=".2"/><path d="M380.63 200.41l15.06 8.7v104.48l-15.06-8.71V200.41z" fill="#758EF5" opacity=".5"/><path d="M365.56 209.11l15.07 8.71v87.06l-15.07-8.7v-87.07z" fill="#758EF5" opacity=".2"/><path d="M350.49 165.58l15.08 8.72v121.88l-15.08-8.7v-121.9z" fill="#758EF5" opacity=".5"/><path d="M335.42 122.06l15.07 8.71v156.71l-15.07-8.72v-156.7z" fill="#758EF5" opacity=".2"/><path d="M320.36 130.77l15.06 8.7v139.29l-15.06-8.71V130.77z" fill="#758EF5" opacity=".5"/><path d="M305.3 87.23l15.06 8.71v174.11l-15.06-8.7V87.23z" fill="#758EF5" opacity=".2"/><path d="M290.22 78.53l15.08 8.7v174.12l-15.08-8.7V78.53z" fill="#758EF5" opacity=".5"/><path d="M275.16 35l15.06 8.7v208.95l-15.06-8.71V35z" fill="#758EF5" opacity=".2"/><path d="M427.96 415.25c0 44.04-61.79 79.75-138 79.75-76.22 0-138.01-35.71-138.01-79.75s61.79-79.75 138.01-79.75c76.21 0 138 35.71 138 79.75z" fill="#0F054C" fill-rule="evenodd" opacity=".4"/><path d="M447.03 372.52c0 50.13-70.33 90.77-157.07 90.77-86.75 0-157.07-40.64-157.07-90.77 0-50.13 70.32-90.76 157.07-90.76 86.74 0 157.07 40.63 157.07 90.76z" fill="url(#r)" fill-rule="evenodd"/><path d="M447.04 342.64h-3.88c-6.3-16.17-20.34-31.54-42.13-44.11-61.34-35.45-160.79-35.45-222.05 0-20.58 11.89-34.17 26.25-41.02 41.43h-4.92v20.13c-1.22 24.11 14.09 48.45 45.94 66.83 61.33 35.44 160.79 35.44 222.13 0 30.67-17.73 46.01-40.95 46.01-64.19l-.08-20.09z" fill="url(#s)" opacity=".48"/><path d="M447.04 334.86h-3.88c-6.3-16.17-20.34-31.53-42.13-44.12-61.34-35.45-160.79-35.45-222.05 0-20.58 11.89-34.17 26.25-41.02 41.42h-4.92v20.21c-1.22 24.12 14.09 48.46 45.94 66.83 61.33 35.45 160.79 35.45 222.13 0 30.67-17.72 46.01-40.96 46.01-64.18l-.08-20.16z"/><path d="M443.16 334.83c-.22-.56-.45-1.12-.7-1.67v-13.23h-8.23v-.95a82.91 82.91 0 00-6.99-8.22v9.17h-4.65v-13.72c-2.19-1.99-4.53-3.94-7.02-5.85v19.6h-4.66v-23.08c-2.25-1.56-4.66-3.11-7.05-4.57v27.57h-4.66v-30.31c-2.3-1.29-4.65-2.53-7.07-3.72v34.03h-4.65v-36.2c-2.33-1.03-4.69-2.07-7.08-3.1v39.3h-4.66V288.1h-7.1v31.83h-4.66v-23.05h-7.13v23.1h-4.65v-14.37h-7.15v14.37h-4.56v-5.62h-7.1v5.62h-86.74v-5.62h-7.18v5.62h-4.56v-14.37h-7.11v14.37h-4.66v-23.1h-7.13v23.1h-4.66V288.1h-7.09v31.83h-4.66v-39.34c-2.39.98-4.75 2.01-7.08 3.11v36.28h-4.66v-34.12c-2.41 1.2-4.77 2.43-7.07 3.71v30.36h-4.66v-27.62c-2.45 1.47-4.8 2.99-7.05 4.55v23.07h-4.65v-19.65c-2.51 1.9-4.83 3.86-7.02 5.85v13.8h-4.66v-9.33c-2.5 2.59-4.83 5.33-6.99 8.21v1.04h-8.23v12.2h-3.49v33.74c1.36 6.3 3.71 12.35 6.97 17.91v-21.03h4.75v28.24a83.92 83.92 0 006.99 8.19v-36.43h4.66v41c2.19 1.97 4.53 3.93 7.02 5.83v-46.83h4.65v50.25c2.26 1.55 4.61 3.07 7.05 4.57v-54.82h4.66v57.51c2.3 1.27 4.66 2.51 7.07 3.71v-61.22h4.66v63.46c2.33 1.03 4.69 2.07 7.08 3.11v-66.52h4.66v68.38c2.33.89 4.65 1.73 7.09 2.54v-70.97h4.66V435c2.36.73 4.66 1.42 7.13 2.07v-74.4h4.66v75.64c2.36.58 4.73 1.14 7.14 1.65v-77.24h4.57v78.19c2.37.47 4.76.88 7.17 1.29v-79.53h4.55v80.18c2.38.36 4.78.67 7.19.97v-81.15h4.52v81.64c2.39.24 4.8.44 7.22.62v-82.26h4.49v82.56c2.42.12 4.83.23 7.25.31v-82.87h4.47v82.96h7.31v-82.96h4.48v82.87c2.42 0 4.83-.19 7.25-.31v-82.56h4.49v82.26c2.42-.18 4.83-.38 7.22-.63v-81.63h4.52v81.13c2.4-.28 4.81-.61 7.19-.95v-80.18h4.56v79.47c2.41-.39 4.8-.83 7.17-1.29v-78.18h4.57v77.2c2.41-.53 4.78-1.07 7.14-1.67v-75.53h4.66v74.38c2.39-.65 4.77-1.35 7.13-2.06v-72.32h4.66v70.83c2.39-.8 4.77-1.56 7.09-2.52v-68.31h4.66v66.49c2.39-.98 4.75-1.99 7.08-3.11v-63.38h4.66v61.22c2.41-1.2 4.77-2.44 7.07-3.71v-57.51h4.66v54.79c2.45-1.5 4.8-3.02 7.05-4.59v-50.2h4.65v46.78c2.49-1.92 4.83-3.86 7.02-5.84v-40.94h4.66v36.38c2.51-2.58 4.84-5.33 6.99-8.22v-28.16h4.67v20.97a60.318 60.318 0 006.98-18.08v-30.71l-2.8-.02z" fill="url(#t)" opacity=".48"/><path d="M447.03 334.87c0 50.12-70.33 90.76-157.07 90.76-86.75 0-157.07-40.64-157.07-90.76 0-50.13 70.32-90.77 157.07-90.77 86.74 0 157.07 40.64 157.07 90.77z" fill="url(#u)" fill-rule="evenodd"/><path d="M290.02 244.04c-35.59 0-71.18 6.94-100.16 20.82L143 366.82c7.64 11.73 19.58 22.72 35.9 32.16 10.53 6 21.65 10.9 33.18 14.64l77.94-169.58zm44.01 3.7l-80.63 175.4a271.36 271.36 0 0058.79 1.56l74.21-161.47a214.18 214.18 0 00-52.37-15.49z" fill="#91A2FA" opacity=".3"/><g opacity=".05"><path d="M429.06 334.87c0 44.39-62.28 80.38-139.1 80.38-76.83 0-139.11-35.99-139.11-80.38 0-44.4 62.28-80.39 139.11-80.39 76.82 0 139.1 35.99 139.1 80.39z" fill="url(#v)" fill-rule="evenodd" opacity=".05"/><path d="M41.49 334.52l-1.49-.87 242.33-140.03 1.49.87L41.49 334.52zm4.27 2.46l-1.49-.86L286.6 196.09l1.49.85L45.76 336.98zm4.27 2.47l-1.49-.85 242.33-140.04 1.49.86L50.03 339.45zm4.27 2.47l-1.49-.85 242.33-140.04 1.49.86L54.3 341.92zm4.27 2.47l-1.49-.87 242.33-140.03 1.5.87L58.57 344.39zm4.27 2.46l-1.49-.86 242.33-140.03 1.5.85L62.84 346.85zm4.27 2.47l-1.49-.86 242.33-140.03 1.48.85L67.11 349.32zm4.27 2.47l-1.49-.85L312.23 210.9l1.47.86L71.38 351.79zm4.27 2.47l-1.49-.87L316.5 213.36l1.47.85L75.65 354.26zm4.27 2.46l-1.49-.86 242.33-140.03 1.48.85L79.92 356.72zm4.25 2.47l-1.47-.86L325.04 218.3l1.47.85L84.17 359.19zm4.27 2.47l-1.47-.85 242.34-140.04 1.47.86L88.44 361.66zm4.27 2.46l-1.47-.86 242.34-140.03 1.47.85L92.71 364.12zm4.28 2.47l-1.48-.86L337.85 225.7l1.47.85L96.99 366.59zm4.27 2.47l-1.48-.86 242.34-140.03 1.47.85-242.33 140.04zm4.27 2.47l-1.49-.86 242.33-140.05 1.49.87-242.33 140.04zm4.27 2.47l-1.49-.87L350.64 233.1l1.49.85L109.8 374zm4.27 2.46l-1.49-.86 242.33-140.03 1.49.85-242.33 140.04zm4.27 2.47l-1.49-.86 242.33-140.03 1.49.85-242.33 140.04zm4.27 2.47l-1.49-.87 242.33-140.04 1.49.87L122.61 381.4zm4.27 2.45l-1.49-.85 242.33-140.04 1.5.86-242.34 140.03zm4.27 2.48l-1.49-.86 242.33-140.03 1.5.85-242.34 140.04zm4.27 2.47l-1.49-.86 242.34-140.03 1.49.85L135.42 388.8zm4.27 2.47l-1.49-.86 242.34-140.05 1.49.87-242.34 140.04zm4.27 2.45l-1.49-.85 242.34-140.04 1.49.86-242.34 140.03zm4.27 2.47l-1.49-.85L389.08 255.3l1.47.86-242.32 140.03zm4.27 2.48l-1.49-.86 242.34-140.03 1.47.85L152.5 398.67zm4.25 2.47l-1.47-.87 242.34-140.04 1.47.87-242.34 140.04zm4.27 2.45l-1.47-.85L401.89 262.7l1.47.86-242.34 140.03zm4.27 2.47l-1.47-.85 242.34-140.04 1.47.86-242.34 140.03zm4.28 2.47l-1.48-.85 242.34-140.03 1.47.85-242.33 140.03zm4.27 2.48l-1.48-.87L414.7 270.1l1.47.86-242.33 140.05zm4.27 2.45l-1.48-.85 242.32-140.04 1.49.86-242.33 140.03zm4.27 2.47l-1.48-.85 242.34-140.04 1.47.86-242.33 140.03zm4.27 2.47l-1.48-.85L427.49 277.5l1.49.87L186.65 418.4zm4.27 2.47l-1.48-.87 242.32-140.03 1.49.87-242.33 140.03zm4.27 2.46l-1.49-.85 242.33-140.04 1.5.85-242.34 140.04zm4.27 2.47l-1.49-.85L440.3 284.91l1.5.86L199.46 425.8zm4.27 2.47l-1.49-.85 242.34-140.05 1.49.87-242.34 140.03zm4.27 2.47l-1.49-.87 242.33-140.03 1.5.87L208 430.74zm4.27 2.46l-1.49-.85 242.34-140.04 1.49.86L212.27 433.2zm4.27 2.47l-1.49-.85 242.34-140.04 1.49.86-242.34 140.03zm4.27 2.47l-1.49-.85 242.34-140.04 1.49.86-242.34 140.03zm4.27 2.47l-1.49-.87 242.34-140.03 1.49.85-242.34 140.05zm4.27 2.46l-1.49-.86L470.2 302.18l1.49.85-242.34 140.04zm4.27 2.47l-1.49-.85 242.34-140.04 1.49.86-242.34 140.03zm4.27 2.47l-1.49-.85 242.34-140.05 1.49.87-242.34 140.03zm4.27 2.46l-1.49-.86 242.34-140.03 1.47.85-242.32 140.04zm4.27 2.47l-1.49-.86 242.34-140.03 1.47.85-242.32 140.04zm4.26 2.47l-1.48-.85 242.34-140.04 1.47.86-242.33 140.03zm4.27 2.47l-1.48-.85 242.34-140.05 1.47.87-242.33 140.03zm4.27 2.46l-1.48-.86 242.34-140.03 1.47.85-242.33 140.04zm4.27 2.47l-1.48-.86 242.34-140.03 1.47.85L263.5 462.81zm4.27 2.47l-1.48-.86 242.34-140.03 1.47.85-242.33 140.04zm4.27 2.47l-1.49-.87 242.33-140.03 1.49.87-242.33 140.03zm4.27 2.46l-1.49-.86 242.33-140.03 1.5.85-242.34 140.04zm4.27 2.47l-1.49-.86 242.34-140.03 1.49.85-242.34 140.04zm4.27 2.47l-1.49-.86 242.33-140.03 1.5.85-242.34 140.04zm4.27 2.47l-1.49-.87 242.33-140.04 1.5.87-242.34 140.04zm4.27 2.46l-1.49-.86 242.34-140.03 1.49.85-242.34 140.04zm4.27 2.47l-1.49-.86 242.34-140.03 1.49.85-242.34 140.04z" fill="#91A2FA" opacity=".05"/></g><path d="M191.6 283.44c54.35-31.38 142.4-31.38 196.73 0 25.96 15.01 39.51 34.47 40.65 54.13 1.25-21.46-12.29-43.16-40.65-59.54-54.35-31.4-142.41-31.4-196.73 0-28.35 16.38-41.93 38.08-40.65 59.54 1.15-19.66 14.73-39.14 40.65-54.13z" fill="url(#w)"/><path d="M332.96 317.85c-8.29-.74-16.62.66-24.21 4.05 9.31-7.77 7.17-15.71-6.45-23.82l-1.01-.59a58.364 58.364 0 00-14.1-6.08 53.968 53.968 0 00-14.39-2.16c-4.65.03-9.29.63-13.79 1.8a90.09 90.09 0 00-7.21 2.15l-8.75-5.07-12.89 7.44 7.2 4.19c-1.27.68-2.56 1.39-3.88 2.16l-4.66 2.73-7.14-4.13-12.89 7.44 7.14 4.14-8.89 5.14-3.48 2.02-.95.53-14.78 8.55 12.89 7.46 14.78-8.55 92.89 53.71-14.8 8.55 12.89 7.45 14.8-8.55 4.42-2.55 8.9-5.15 7.27 4.2 12.89-7.44-4.66-2.66-2.66-1.56 8.56-4.94 7.27 4.2 12.89-7.45-4.66-2.65-3.7-2.15c5.08-4.43 7.77-8.9 8.11-13.41.37-6.74-5.22-13.47-16.77-20.21l-.78-.46a62.761 62.761 0 00-25.4-8.33zm-86.53-3.02l4.15-2.41c10.27-5.92 20.1-6.18 29.5-.78 5.5 3.11 8.48 6.08 8.99 8.71.52 2.63-2.06 5.58-7.76 8.84l-5.02 2.89-29.86-17.25zm82.8 47.84l-35.67-20.56 5.16-2.99c4.9-3.1 10.59-4.72 16.39-4.66 5.12.25 11.02 2.32 17.71 6.22 5.96 3.45 9.18 6.63 9.66 9.56.48 2.92-2.13 6.03-7.77 9.32l-5.48 3.11z" fill="url(#x)"/><path d="M208.71 297.5v8.27l7.15-4.13-7.15-4.14z" fill="url(#y)"/><path d="M230.16 285.11v8.27l7.2-4.09-7.2-4.18z" fill="url(#z)"/><path d="M314.45 301.65v9.82l-6.46-3.96 6.46-5.86z" fill="url(#A)"/><path d="M375.99 334.87v11.99l-9.69-6 9.69-5.99z" fill="url(#B)"/><path d="M332.96 307.39c-8.29-.74-16.62.66-24.21 4.05 9.31-7.77 7.17-15.72-6.45-23.84l-1.01-.57a58.364 58.364 0 00-14.1-6.08c-4.68-1.37-9.52-2.1-14.39-2.16-4.65.03-9.29.63-13.79 1.8-2.52.63-4.92 1.35-7.21 2.15l-8.75-5.07-12.89 7.44 7.2 4.18c-1.27.69-2.56 1.4-3.88 2.17l-4.66 2.73-7.14-4.13-12.89 7.44 7.14 4.14-8.89 5.14-3.48 2.01-.95.54-14.78 8.55 12.89 7.46 14.78-8.55 92.97 53.71-14.8 8.55 12.89 7.45 14.8-8.55 4.42-2.55 8.9-5.15 7.27 4.2 12.89-7.44-4.66-2.66-2.66-1.56 8.56-4.94 7.27 4.2 12.88-7.45-4.65-2.65-3.7-2.15c5.08-4.43 7.76-8.9 8.11-13.41.37-6.74-5.22-13.47-16.78-20.21l-.77-.45a62.825 62.825 0 00-25.48-8.34zm-86.53-3.02l4.15-2.41c10.27-5.92 20.1-6.18 29.5-.77 5.5 3.1 8.48 6.07 8.99 8.7.51 2.62-2.06 5.58-7.76 8.84l-5.02 2.89-29.86-17.25zm82.8 47.84l-35.61-20.56 5.16-2.99c4.9-3.1 10.59-4.72 16.4-4.66 5.11.25 11.01 2.32 17.7 6.22 5.96 3.45 9.18 6.63 9.66 9.56.48 2.92-2.13 6.03-7.77 9.32l-5.54 3.11z" fill="url(#C)"/><path d="M376.2 354.62v10.46l-12.89 7.44v-10.46l12.89-7.44z" fill="url(#D)"/><path d="M354.76 367.01v10.46l-12.89 7.44v-10.46l12.89-7.44z" fill="url(#E)"/><path d="M306.49 386.5v10.46l-12.9-7.45v-10.46l12.9 7.45z" fill="url(#F)"/><path d="M187.75 317.88v10.47l12.89 7.45v-10.46l-12.89-7.46z" fill="url(#G)"/><path d="M215.42 327.25v-10.46l-14.78 8.55v10.46l14.78-8.55z" fill="url(#H)"/><path d="M215.42 316.79v10.46l83.92 48.49 9.05-5.24-92.97-53.71z" fill="url(#I)"/><path d="M291.88 259.22a31.98 31.98 0 01-15.74-3.76c-4.38-2.52-6.79-5.94-6.79-9.6 0-3.67 2.41-7.08 6.79-9.61 8.68-5 22.81-5 31.51 0 4.36 2.53 6.77 5.95 6.77 9.61 0 3.65-2.41 7.08-6.77 9.6a32.094 32.094 0 01-15.77 3.76zm0-25.02c-5.18-.1-10.31 1.13-14.89 3.56-3.8 2.2-5.9 5.08-5.9 8.1 0 3.01 2.1 5.9 5.92 8.11 8.2 4.74 21.55 4.74 29.77 0 3.8-2.21 5.91-5.08 5.91-8.11 0-3.04-2.11-5.9-5.91-8.1a30.573 30.573 0 00-14.9-3.56z" fill="#91A2FA"/><path d="M301.22 251.25a20.541 20.541 0 01-9.32 2.23c-3.24 0-6.43-.76-9.32-2.23-5.15-2.97-5.15-7.77 0-10.77 2.89-1.47 6.08-2.24 9.32-2.24s6.43.77 9.32 2.24c5.13 2.97 5.13 7.8 0 10.77z" fill="#97A6FC"/><path d="M346.28 219.76l-9.24-5.33 15.73-9.09 9.25 5.33-15.74 9.09z" fill="#91A2FA"/><path d="M329.66 211.34l-11.64-3.44 10.11-11.45 11.64 3.43-10.11 11.46z" fill="#91A2FA" opacity=".8"/><path d="M309.35 206.27l-12.9-1.18 3.48-12.7 12.9 1.18-3.48 12.7z" fill="#91A2FA" opacity=".6"/><path d="M287.33 205.09l-12.92 1.18-3.48-12.7 12.91-1.18 3.49 12.7z" fill="#91A2FA" opacity=".4"/><path d="M265.75 207.9l-11.65 3.44-10.09-11.47 11.63-3.42 10.11 11.45z" fill="#91A2FA" opacity=".2"/><path d="M246.73 214.43l-9.24 5.33-15.73-9.09 9.24-5.33 15.73 9.09z" fill="#91A2FA" opacity=".1"/><path d="M315.44 234.14l-3.25-1.88 23.48-13.57 3.25 1.88-23.48 13.57z" fill="#91A2FA" opacity=".2"/><path d="M308 230.5l-4.08-1.21 15.08-17.1 4.08 1.21L308 230.5z" fill="#91A2FA" opacity=".4"/><path d="M299.01 228.37l-4.53-.42 5.18-18.94 4.54.41-5.19 18.95z" fill="#91A2FA" opacity=".6"/><path d="M289.31 227.95l-4.54.42-5.2-18.95 4.53-.41 5.21 18.94z" fill="#91A2FA" opacity=".8"/><path d="M279.85 229.29l-4.09 1.21-15.07-17.1 4.1-1.21 15.06 17.1zm-8.26 2.97l-3.25 1.88-23.48-13.57 3.25-1.88 23.48 13.57zm-6.29 4.29l-2.08 2.36-29.58-8.72 2.08-2.36 29.58 8.72zm-3.68 5.2l-.72 2.61-32.79-3 .71-2.62 32.8 3.01zm-.72 5.6l.72 2.62-32.8 3-.71-2.62 32.79-3zm2.32 5.47l2.08 2.36-29.58 8.7-2.08-2.36 29.58-8.7zm5.12 4.77l3.25 1.88-23.48 13.57-3.25-1.88 23.48-13.57z" fill="#91A2FA"/><path d="M384.11 201.81c34.52 24.06 36.44 58.45 5.82 83.69l12.42 11.46c42.25-30.43 41.32-74.25-2.75-104.13l-15.49 8.98z" fill="#97A6FC" opacity=".6"/><path d="M310.56 314.16c-36.5 3.31-75.17-3.1-103.29-19.39a94.36 94.36 0 01-17.08-12.44l-21.07 4.2c6.77 6.67 14.4 12.42 22.68 17.1 35.58 20.54 85.41 27.85 131.09 21.93l-12.33-11.4z" fill="#91A2FA" opacity=".2"/><path d="M151.85 257.47l21.07-4.2c-3.73-20.08 7.76-40.92 34.35-56.31 44.04-25.44 113.84-26.9 160.86-4.4l15.45-8.92c-55.58-27.42-139.18-25.96-191.73 4.41-32.75 18.92-46.07 44.81-40 69.42zm127.13 34.11l-8.25-4.76 105.88-61.18 8.24 4.75-105.87 61.19z" fill="#97A6FC"/><path d="M290.69 298.36l-8.25-4.77 46.03-26.6 8.24 4.77-46.02 26.6z" fill="#97A6FC" opacity=".8"/><path d="M303.22 305.6l-8.25-4.77 73.27-42.32 8.24 4.75-73.26 42.34z" fill="#97A6FC" opacity=".6"/><path d="M315.56 312.72l-8.26-4.76 57.04-32.95 8.24 4.76-57.02 32.95z" fill="#97A6FC" opacity=".2"/></svg>