<svg width="32.000000" height="32.000000" viewBox="0 0 32 32" fill="none" xmlns="http://www.w3.org/2000/svg" xmlns:xlink="http://www.w3.org/1999/xlink">
	<desc>
			Created with Pixso.
	</desc>
	<defs>
		<clipPath id="clip1_527">
			<rect id="eva:chevron-right-outline" width="24.000000" height="24.000000" transform="translate(4.000000 4.000000)" fill="white" fill-opacity="0"/>
		</clipPath>
	</defs>
	<circle id="Ellipse 8" cx="16.000000" cy="16.000000" r="16.000000" fill="#FFFFFF" fill-opacity="1.000000"/>
	<rect id="eva:chevron-right-outline" width="24.000000" height="24.000000" transform="translate(4.000000 4.000000)" fill="#3671E9" fill-opacity="0"/>
	<g clip-path="url(#clip1_527)">
		<path id="Vector" d="M14.5 21C14.36 21 14.23 20.97 14.11 20.92C13.99 20.87 13.88 20.8 13.79 20.71C13.69 20.61 13.62 20.5 13.57 20.38C13.52 20.26 13.49 20.13 13.49 20C13.49 19.86 13.52 19.73 13.57 19.61C13.62 19.49 13.69 19.38 13.79 19.29L17.1 16L13.92 12.68C13.73 12.5 13.62 12.24 13.62 11.98C13.62 11.72 13.73 11.46 13.92 11.28C14.01 11.18 14.12 11.11 14.24 11.06C14.36 11.01 14.49 10.98 14.63 10.98C14.76 10.98 14.89 11.01 15.01 11.06C15.13 11.11 15.24 11.18 15.34 11.28L19.2 15.28C19.38 15.46 19.48 15.71 19.48 15.98C19.48 16.24 19.38 16.49 19.2 16.67L15.2 20.67C15.11 20.77 15 20.85 14.88 20.9C14.76 20.96 14.63 20.99 14.5 21Z" fill="#3671E9" fill-opacity="1.000000" fill-rule="nonzero"/>
	</g>
</svg>
