<svg width="80.000000" height="80.000000" viewBox="0 0 80 80" fill="none" xmlns="http://www.w3.org/2000/svg" xmlns:xlink="http://www.w3.org/1999/xlink">
	<desc>
			Created with Pixso.
	</desc>
	<defs>
		<clipPath id="clip1_1297">
			<rect id="Icon / Earth" width="40.000000" height="40.000000" transform="translate(20.000000 20.000000)" fill="white" fill-opacity="0"/>
		</clipPath>
	</defs>
	<g opacity="0.100000">
		<circle id="Base" cx="40.000000" cy="40.000000" r="40.000000" fill="#FFFFFF" fill-opacity="1.000000"/>
	</g>
	<rect id="Icon / Earth" width="40.000000" height="40.000000" transform="translate(20.000000 20.000000)" fill="#FFFFFF" fill-opacity="0"/>
	<g clip-path="url(#clip1_1297)">
		<path id="Vector" d="M52.37 27.63C50.75 25.99 48.82 24.69 46.69 23.8C44.56 22.91 42.28 22.45 39.98 22.44C37.67 22.44 35.39 22.89 33.26 23.77C31.13 24.65 29.19 25.94 27.56 27.57C25.93 29.2 24.64 31.14 23.76 33.27C22.88 35.4 22.43 37.68 22.43 39.99C22.44 42.29 22.9 44.57 23.79 46.7C24.68 48.83 25.98 50.76 27.62 52.38C29.24 54.02 31.17 55.32 33.3 56.21C35.43 57.1 37.71 57.56 40.01 57.57C42.32 57.57 44.6 57.12 46.73 56.24C48.86 55.36 50.8 54.07 52.43 52.44C54.06 50.81 55.35 48.87 56.23 46.74C57.11 44.61 57.56 42.33 57.56 40.02C57.55 37.72 57.09 35.44 56.2 33.31C55.31 31.18 54.01 29.25 52.37 27.63ZM25 40.01C24.99 38.68 25.17 37.36 25.52 36.08C26.09 37.31 26.92 38.38 27.49 39.64C28.22 41.27 30.19 40.82 31.06 42.25C31.83 43.51 31 45.11 31.58 46.44C32 47.4 32.99 47.61 33.67 48.31C34.36 49.02 34.35 49.99 34.46 50.92C34.58 52.01 34.77 53.08 35.04 54.14C35.04 54.15 35.04 54.16 35.04 54.17C29.2 52.12 25 46.54 25 40.01ZM40 55.01C39.16 55.01 38.32 54.94 37.5 54.8C37.5 54.58 37.51 54.39 37.53 54.25C37.72 53.01 38.34 51.79 39.18 50.86C40.01 49.95 41.14 49.33 41.84 48.28C42.53 47.27 42.74 45.9 42.45 44.72C42.04 42.96 39.65 42.38 38.37 41.43C37.63 40.88 36.97 40.03 36.01 39.97C35.56 39.93 35.18 40.03 34.74 39.92C34.34 39.81 34.02 39.59 33.58 39.65C32.77 39.75 32.26 40.62 31.4 40.5C30.57 40.39 29.72 39.43 29.54 38.64C29.29 37.63 30.09 37.3 30.95 37.22C31.31 37.18 31.71 37.14 32.05 37.27C32.5 37.44 32.71 37.88 33.12 38.1C33.88 38.52 34.03 37.85 33.92 37.18C33.74 36.17 33.54 35.75 34.44 35.06C35.07 34.58 35.6 34.23 35.5 33.37C35.44 32.86 35.16 32.63 35.42 32.13C35.62 31.75 36.16 31.4 36.51 31.17C37.41 30.58 40.39 30.63 39.17 28.97C38.81 28.49 38.16 27.62 37.53 27.5C36.75 27.35 36.4 28.23 35.86 28.61C35.3 29.01 34.2 29.46 33.64 28.84C32.88 28.02 34.14 27.75 34.42 27.17C34.55 26.9 34.42 26.52 34.2 26.17C34.48 26.05 34.77 25.94 35.06 25.84C35.24 25.98 35.46 26.06 35.69 26.08C36.21 26.11 36.7 25.83 37.16 26.18C37.66 26.57 38.03 27.07 38.7 27.19C39.35 27.31 40.04 26.93 40.2 26.26C40.3 25.86 40.2 25.43 40.11 25.01C43.03 25.03 45.88 25.9 48.31 27.53C48.15 27.47 47.97 27.48 47.74 27.58C47.26 27.8 46.59 28.37 46.53 28.92C46.47 29.55 47.4 29.64 47.84 29.64C48.51 29.64 49.18 29.34 48.97 28.58C48.87 28.24 48.75 27.9 48.54 27.69C49.03 28.03 49.5 28.4 49.95 28.79C49.94 28.8 49.94 28.81 49.93 28.81C49.48 29.28 48.96 29.65 48.65 30.23C48.43 30.63 48.19 30.82 47.75 30.92C47.5 30.98 47.23 31 47.02 31.16C46.46 31.61 46.78 32.68 47.32 33C47.99 33.4 49 33.21 49.51 32.63C49.91 32.18 50.14 31.39 50.86 31.4C51.18 31.39 51.48 31.52 51.71 31.74C52 32.05 51.95 32.34 52.01 32.72C52.12 33.4 52.72 33.03 53.09 32.69C53.36 33.16 53.6 33.65 53.81 34.15C53.41 34.73 53.09 35.37 52.12 34.69C51.54 34.29 51.18 33.7 50.45 33.51C49.82 33.36 49.16 33.52 48.53 33.63C47.82 33.75 46.97 33.81 46.43 34.35C45.91 34.87 45.63 35.57 45.07 36.09C43.99 37.11 43.54 38.22 44.23 39.65C44.91 41.03 46.31 41.78 47.83 41.69C49.32 41.59 50.87 40.72 50.82 42.89C50.81 43.65 50.97 44.18 51.2 44.9C51.42 45.55 51.41 46.19 51.46 46.87C51.5 47.66 51.63 48.45 51.83 49.21C50.43 51.02 48.63 52.48 46.58 53.48C44.53 54.48 42.28 55.01 40 55.01Z" fill="#3671E9" fill-opacity="1.000000" fill-rule="nonzero"/>
	</g>
</svg>
