<svg width="80.000000" height="80.000000" viewBox="0 0 80 80" fill="none" xmlns="http://www.w3.org/2000/svg" xmlns:xlink="http://www.w3.org/1999/xlink">
	<desc>
			Created with Pixso.
	</desc>
	<defs>
		<clipPath id="clip1_1314">
			<rect id="Icon / Bar Chart" width="32.000000" height="32.000000" transform="translate(24.000000 24.000000)" fill="white" fill-opacity="0"/>
		</clipPath>
	</defs>
	<circle id="Base" cx="40.000000" cy="40.000000" r="40.000000" fill="#FFFFFF" fill-opacity="0.100000"/>
	<rect id="Icon / Bar Chart" width="32.000000" height="32.000000" transform="translate(24.000000 24.000000)" fill="#FFFFFF" fill-opacity="0"/>
	<g clip-path="url(#clip1_1314)">
		<path id="Vector" d="M54 55L27 55C26.46 55 25.96 54.78 25.58 54.41C25.21 54.03 25 53.53 25 53L25 26C25 25.73 25.1 25.48 25.29 25.29C25.48 25.1 25.73 25 26 25C26.26 25 26.51 25.1 26.7 25.29C26.89 25.48 27 25.73 27 26L27 53L54 53C54.26 53 54.51 53.1 54.7 53.29C54.89 53.48 55 53.73 55 54C55 54.26 54.89 54.51 54.7 54.7C54.51 54.89 54.26 55 54 55Z" fill="#3671E9" fill-opacity="1.000000" fill-rule="nonzero"/>
		<path id="Vector" d="M33.75 51L31.25 51C30.65 51 30.08 50.76 29.65 50.34C29.23 49.91 29 49.34 29 48.75L29 39.25C29 38.65 29.23 38.08 29.65 37.65C30.08 37.23 30.65 37 31.25 37L33.75 37C34.34 37 34.91 37.23 35.34 37.65C35.76 38.08 36 38.65 36 39.25L36 48.75C36 49.34 35.76 49.91 35.34 50.34C34.91 50.76 34.34 51 33.75 51Z" fill="#3671E9" fill-opacity="1.000000" fill-rule="nonzero"/>
		<path id="Vector" d="M42.75 51L40.25 51C39.65 51 39.08 50.76 38.65 50.34C38.23 49.91 38 49.34 38 48.75L38 36.25C38 35.65 38.23 35.08 38.65 34.65C39.08 34.23 39.65 34 40.25 34L42.75 34C43.34 34 43.91 34.23 44.34 34.65C44.76 35.08 45 35.65 45 36.25L45 48.75C45 49.34 44.76 49.91 44.34 50.34C43.91 50.76 43.34 51 42.75 51Z" fill="#3671E9" fill-opacity="1.000000" fill-rule="nonzero"/>
		<path id="Vector" d="M51.72 51L49.22 51C48.63 51 48.05 50.76 47.63 50.34C47.21 49.91 46.97 49.34 46.97 48.75L46.97 32.25C46.97 31.65 47.21 31.08 47.63 30.65C48.05 30.23 48.63 30 49.22 30L51.72 30C52.32 30 52.89 30.23 53.31 30.65C53.74 31.08 53.97 31.65 53.97 32.25L53.97 48.75C53.97 49.34 53.74 49.91 53.31 50.34C52.89 50.76 52.32 51 51.72 51Z" fill="#3671E9" fill-opacity="1.000000" fill-rule="nonzero"/>
	</g>
</svg>
