<svg width="135.000061" height="40.000000" viewBox="0 0 135 40" fill="none" xmlns="http://www.w3.org/2000/svg" xmlns:xlink="http://www.w3.org/1999/xlink">
	<desc>
			Created with Pixso.
	</desc>
	<defs/>
	<g style="mix-blend-mode:normal">
		<path id="Oval" d="M20 40C31.04 40 40 31.04 40 20C40 8.95 31.04 0 20 0C8.95 0 0 8.95 0 20C0 31.04 8.95 40 20 40Z" fill="#FFFFFF" fill-opacity="0.100000" fill-rule="nonzero"/>
	</g>
	<path id="Shape" d="M11.8965 19.9819C11.8965 24.0757 14.9125 27.4636 18.8424 28.0393L18.8424 32.2788C12.5856 31.6799 7.69238 26.4033 7.69238 19.9819C7.69238 13.5605 12.5856 8.28369 18.8424 7.6853L18.8424 11.925C14.9125 12.5005 11.8965 15.8882 11.8965 19.9819Z" clip-rule="evenodd" fill="#FFFFFF" fill-opacity="1.000000" fill-rule="evenodd"/>
	<g style="mix-blend-mode:normal">
		<path id="Shape" d="M26.99 12L26.88 12.37L26.88 23.13L26.99 23.24L31.99 20.29L26.99 12Z" fill="#FFFFFF" fill-opacity="1.000000" fill-rule="nonzero"/>
		<path id="Shape" d="M26.99 12L22 20.29L26.99 23.24L26.99 18.02L26.99 12Z" fill="#FFFFFF" fill-opacity="1.000000" fill-rule="nonzero"/>
		<path id="Shape" d="M26.99 24.87L26.93 24.94L26.93 28.78L26.99 28.96L32 21.92L26.99 24.87Z" fill="#FFFFFF" fill-opacity="1.000000" fill-rule="nonzero"/>
		<path id="Shape" d="M26.99 28.96L26.99 24.87L22 21.92L26.99 28.96Z" fill="#FFFFFF" fill-opacity="1.000000" fill-rule="nonzero"/>
		<path id="Shape" d="M26.99 23.24L31.99 20.29L26.99 18.02L26.99 23.24Z" fill="#FFFFFF" fill-opacity="1.000000" fill-rule="nonzero"/>
		<path id="Shape" d="M22 20.29L26.99 23.24L26.99 18.02L22 20.29Z" fill="#FFFFFF" fill-opacity="1.000000" fill-rule="nonzero"/>
	</g>
	<path id="CRAPPO" d="M62.95 12.72C65.85 12.72 68.09 14.41 68.49 17.32L66.1 17.32C65.83 15.76 64.58 14.85 62.99 14.85C60.85 14.85 59.34 16.5 59.34 19.45C59.34 22.45 60.86 24.04 62.98 24.04C64.55 24.04 65.8 23.18 66.1 21.65L68.49 21.66C68.13 24.16 66.06 26.18 62.95 26.18C59.5 26.18 56.95 23.67 56.95 19.45C56.95 15.22 59.53 12.72 62.95 12.72ZM127.86 12.72C131.29 12.72 133.87 15.22 133.87 19.45C133.87 23.68 131.29 26.18 127.86 26.18C124.42 26.18 121.84 23.67 121.84 19.45C121.84 15.22 124.42 12.72 127.86 12.72ZM73.76 26L71.39 26L71.39 12.9L76.3 12.9C79.31 12.9 80.91 14.59 80.91 17.09C80.91 18.87 80.1 20.19 78.56 20.81L81.39 26L78.75 26L76.18 21.2L73.76 21.2L73.76 26ZM86.58 22.77L85.5 26L82.97 26L87.58 12.9L90.51 12.9L95.12 26L92.59 26L91.5 22.77L86.58 22.77ZM99.94 26L97.57 26L97.57 12.9L102.48 12.9C105.49 12.9 107.09 14.74 107.09 17.24C107.09 19.75 105.47 21.57 102.45 21.57L99.94 21.57L99.94 26ZM112.24 26L109.87 26L109.87 12.9L114.78 12.9C117.79 12.9 119.4 14.74 119.4 17.24C119.4 19.75 117.77 21.57 114.75 21.57L112.24 21.57L112.24 26ZM127.86 24.04C129.99 24.04 131.49 22.43 131.49 19.45C131.49 16.47 129.99 14.85 127.86 14.85C125.73 14.85 124.23 16.47 124.23 19.45C124.23 22.43 125.73 24.04 127.86 24.04ZM73.76 14.89L73.76 19.23L75.95 19.23C77.71 19.23 78.5 18.48 78.5 17.09C78.5 15.7 77.71 14.89 75.94 14.89L73.76 14.89ZM99.94 14.89L99.94 19.62L102.13 19.62C103.89 19.62 104.68 18.63 104.68 17.24C104.68 15.84 103.89 14.89 102.11 14.89L99.94 14.89ZM112.24 14.89L112.24 19.62L114.43 19.62C116.19 19.62 116.98 18.63 116.98 17.24C116.98 15.84 116.19 14.89 114.42 14.89L112.24 14.89ZM88.99 15.59L87.22 20.86L90.87 20.86L89.1 15.59L88.99 15.59Z" fill="#FFFFFF" fill-opacity="1.000000" fill-rule="evenodd"/>
</svg>
